<?xml version="1.0" standalone="no"?>
<!DOCTYPE svg PUBLIC "-//W3C//DTD SVG 20010904//EN"
 "http://www.w3.org/TR/2001/REC-SVG-20010904/DTD/svg10.dtd">
<svg version="1.0" xmlns="http://www.w3.org/2000/svg"
 width="512.000000pt" height="512.000000pt" viewBox="0 0 512.000000 512.000000"
 preserveAspectRatio="xMidYMid meet">

<g transform="translate(0.000000,512.000000) scale(0.100000,-0.100000)"
fill="#000000" stroke="none">
<path d="M1845 5110 c-472 -43 -908 -248 -1249 -586 -307 -305 -501 -690 -572
-1135 -23 -142 -23 -456 0 -598 85 -537 357 -995 784 -1319 564 -430 1330
-528 1992 -257 103 42 257 122 330 171 l35 24 670 -669 c708 -706 703 -703
824 -731 156 -37 341 51 415 198 38 75 52 166 37 243 -26 128 -15 116 -732
834 l-668 670 39 61 c209 328 327 776 305 1159 -31 536 -225 976 -594 1346
-315 315 -683 503 -1122 573 -119 19 -373 27 -494 16z m492 -724 c137 -34 239
-75 350 -138 337 -194 568 -512 650 -898 25 -120 25 -401 0 -520 -102 -474
-438 -854 -888 -1004 -125 -42 -218 -57 -374 -63 -239 -8 -427 32 -634 134
-363 179 -620 506 -712 906 -31 131 -37 361 -14 499 82 497 435 907 909 1057
156 50 238 61 436 57 147 -3 191 -8 277 -30z"/>
<path d="M1824 4192 c-51 -24 -112 -95 -120 -139 -18 -96 21 -190 97 -233 41
-23 159 -42 339 -56 67 -5 80 -3 120 18 119 64 147 223 57 324 -16 19 -43 42
-58 50 -42 21 -171 44 -289 50 -90 4 -111 2 -146 -14z"/>
<path d="M2611 3888 c-69 -12 -119 -52 -152 -123 -37 -80 -16 -165 62 -253
103 -118 162 -259 183 -442 18 -151 40 -195 118 -234 113 -56 237 -14 289 99
47 102 1 384 -97 589 -61 130 -197 312 -255 342 -43 22 -101 31 -148 22z"/>
</g>
</svg>
